<svg width="500" height="278" viewBox="0 0 500 278" fill="none" xmlns="http://www.w3.org/2000/svg">
<rect width="500" height="278" fill="#181818"/>
<path fill-rule="evenodd" clip-rule="evenodd" d="M399.223 108C409.632 108 417.855 109.256 423.891 111.768C429.926 114.225 434.134 117.664 436.515 122.087C438.951 126.455 440.17 131.834 440.17 138.222C440.17 144.283 438.785 149.579 436.017 154.111C433.248 158.643 429.095 162.165 423.558 164.676C418.021 167.133 411.211 168.362 403.126 168.362H388.093C383.336 168.362 378.53 168.338 373.676 168.291C373.112 168.285 372.664 167.814 372.687 167.25C373.102 156.883 373.309 147.207 373.309 138.222C373.309 129.125 373.101 119.645 372.686 109.78C372.663 109.243 373.066 108.784 373.602 108.743C380.083 108.248 388.623 108 399.223 108ZM405.452 152.063C410.601 152.063 414.035 150.835 415.751 148.378C417.467 145.921 418.326 142.535 418.326 138.222C418.326 134.072 417.412 130.714 415.585 128.148C413.813 125.582 410.435 124.299 405.452 124.299C400.081 124.299 396.067 124.462 393.409 124.79V152.063H405.452ZM334.213 108.901C334.782 108.901 335.236 109.374 335.213 109.943C334.854 118.873 334.674 128.436 334.674 138.631C334.674 148.827 334.854 158.39 335.213 167.32C335.236 167.889 334.782 168.362 334.213 168.362H316.738C316.185 168.362 315.738 167.914 315.738 167.362V146.085H285.173V167.362C285.173 167.914 284.725 168.362 284.173 168.362H266.697C266.129 168.362 265.675 167.888 265.698 167.32C266.112 157.119 266.319 147.556 266.319 138.631C266.319 129.707 266.112 120.144 265.698 109.943C265.675 109.375 266.129 108.901 266.697 108.901H284.173C284.725 108.901 285.173 109.349 285.173 109.901V131.178H315.738V109.901C315.738 109.349 316.185 108.901 316.738 108.901H334.213ZM238.798 156.65C240.443 161.01 241.778 164.688 242.803 167.683C242.941 168.089 243.322 168.362 243.751 168.362H263.076C263.782 168.362 264.265 167.652 264.007 166.995L241.373 109.534C241.222 109.152 240.853 108.901 240.442 108.901H211.241C210.829 108.901 210.46 109.153 210.31 109.537L187.836 166.998C187.58 167.654 188.063 168.362 188.768 168.362H207.443C207.867 168.362 208.244 168.095 208.386 167.696L212.303 156.65H238.798ZM227.585 126.674C229.8 132.407 231.959 138.14 234.063 143.873H217.037C220.802 133.827 223.654 126.319 225.592 121.35L227.585 126.674ZM185.896 167.362C185.896 167.914 185.448 168.362 184.896 168.362H165.883C165.33 168.362 164.883 167.914 164.883 167.362V124.954H146.278L146.195 129.704C146.195 133.854 146.084 137.512 145.863 140.679C145.697 143.791 145.309 146.985 144.7 150.262C143.592 156.213 140.769 160.991 136.228 164.594C131.93 168.048 125.979 169.847 118.375 169.991C117.823 170.001 117.374 169.552 117.374 169V154.847C117.374 154.371 117.711 153.966 118.17 153.839C119.953 153.343 121.376 152.451 122.441 151.162C123.714 149.634 124.683 147.204 125.348 143.873C125.846 141.198 126.095 135.11 126.095 125.609L126.017 109.907C126.014 109.353 126.464 108.902 127.019 108.902L184.897 108.981C185.449 108.982 185.896 109.43 185.896 109.981V167.362ZM106.963 148.705C105.247 145.484 100.125 139.696 100.125 139.696C100.125 139.696 94.671 134.291 91.0165 132.871L113.613 110.613C114.251 109.986 113.806 108.901 112.912 108.901H88.4418C84.2336 114.798 77.8106 121.951 69.1727 130.359C68.0653 130.359 67.2347 130.332 66.681 130.277V109.901C66.681 109.349 66.2333 108.901 65.681 108.901H47.0427C46.474 108.901 46.0199 109.375 46.0429 109.943C46.4573 120.144 46.6645 129.707 46.6645 138.631C46.6645 147.556 46.4573 157.119 46.0429 167.32C46.0199 167.888 46.474 168.362 47.0427 168.362H65.681C66.2333 168.362 66.681 167.914 66.681 167.362V148.132C71.5536 148.132 75.3742 148.432 78.1428 149.033C80.9667 149.579 83.32 150.835 85.2026 152.801C86.3654 154.056 87.2513 155.531 87.8604 157.223C88.5248 158.916 89.1339 161.018 89.6876 163.53C90.1261 165.346 90.4952 166.734 90.7948 167.694C90.9206 168.097 91.2983 168.362 91.7207 168.362H113.754C114.512 168.362 115.007 167.545 114.691 166.855C113.978 165.3 113.118 163.154 112.113 160.417C110.452 155.776 108.735 151.872 106.963 148.705Z" fill="white"/>
<ellipse cx="447.776" cy="163.8" rx="6.22373" ry="6.2" fill="#1A38FF"/>
</svg>
